<mxfile host="app.diagrams.net" modified="2021-09-02T02:35:09.477Z" agent="5.0 (Macintosh; Intel Mac OS X 10_15_7) AppleWebKit/537.36 (KHTML, like Gecko) Chrome/92.0.4515.159 Safari/537.36" etag="cAC37sbzTT8UDt_Ic91n" version="15.0.5" type="github">
  <diagram id="X7zb9aCmdlLVs0uHJmGa" name="Page-1">
    <mxGraphModel dx="1113" dy="664" grid="1" gridSize="10" guides="1" tooltips="1" connect="1" arrows="1" fold="1" page="1" pageScale="1" pageWidth="827" pageHeight="1169" math="0" shadow="0">
      <root>
        <mxCell id="0" />
        <mxCell id="1" parent="0" />
        <mxCell id="PfJTAdF5xYjGFn6m8Uyh-1" value="count" style="rounded=1;whiteSpace=wrap;html=1;strokeColor=#82b366;fillColor=#C2E7D9;fontFamily=Helvetica;fontSize=19;" vertex="1" parent="1">
          <mxGeometry x="350" y="390" width="120" height="60" as="geometry" />
        </mxCell>
        <mxCell id="PfJTAdF5xYjGFn6m8Uyh-2" value="flags" style="rounded=1;whiteSpace=wrap;html=1;strokeColor=#82b366;fillColor=#C2E7D9;fontFamily=Helvetica;fontSize=19;" vertex="1" parent="1">
          <mxGeometry x="230" y="390" width="120" height="60" as="geometry" />
        </mxCell>
        <mxCell id="PfJTAdF5xYjGFn6m8Uyh-3" value="overflow" style="rounded=1;whiteSpace=wrap;html=1;strokeColor=#82b366;fillColor=#C2E7D9;fontFamily=Helvetica;fontSize=19;" vertex="1" parent="1">
          <mxGeometry x="470" y="390" width="120" height="60" as="geometry" />
        </mxCell>
        <mxCell id="PfJTAdF5xYjGFn6m8Uyh-4" value="*ptr" style="rounded=1;whiteSpace=wrap;html=1;strokeColor=#82b366;fillColor=#C2E7D9;fontFamily=Helvetica;fontSize=19;" vertex="1" parent="1">
          <mxGeometry x="590" y="390" width="370" height="60" as="geometry" />
        </mxCell>
        <mxCell id="PfJTAdF5xYjGFn6m8Uyh-7" value="id" style="rounded=1;whiteSpace=wrap;html=1;strokeColor=#82b366;fillColor=#C2E7D9;fontFamily=Helvetica;fontSize=19;" vertex="1" parent="1">
          <mxGeometry x="110" y="390" width="120" height="60" as="geometry" />
        </mxCell>
        <mxCell id="PfJTAdF5xYjGFn6m8Uyh-10" value="" style="shape=curlyBracket;whiteSpace=wrap;html=1;rounded=1;fontFamily=Helvetica;fontSize=19;fontColor=#FFFFFF;fillColor=#C2E7D9;direction=north;" vertex="1" parent="1">
          <mxGeometry x="590" y="470" width="350" height="50" as="geometry" />
        </mxCell>
        <mxCell id="PfJTAdF5xYjGFn6m8Uyh-14" value="page data" style="text;html=1;align=center;verticalAlign=middle;resizable=0;points=[];autosize=1;strokeColor=none;fillColor=none;fontSize=19;fontFamily=Helvetica;fontColor=#33001A;" vertex="1" parent="1">
          <mxGeometry x="725" y="530" width="100" height="30" as="geometry" />
        </mxCell>
        <mxCell id="PfJTAdF5xYjGFn6m8Uyh-15" value="" style="shape=curlyBracket;whiteSpace=wrap;html=1;rounded=1;fontFamily=Helvetica;fontSize=19;fontColor=#FFFFFF;fillColor=#C2E7D9;direction=north;" vertex="1" parent="1">
          <mxGeometry x="110" y="470" width="480" height="50" as="geometry" />
        </mxCell>
        <mxCell id="PfJTAdF5xYjGFn6m8Uyh-21" value="page header" style="text;html=1;align=center;verticalAlign=middle;resizable=0;points=[];autosize=1;strokeColor=none;fillColor=none;fontSize=19;fontFamily=Helvetica;fontColor=#33001A;" vertex="1" parent="1">
          <mxGeometry x="303" y="530" width="120" height="30" as="geometry" />
        </mxCell>
      </root>
    </mxGraphModel>
  </diagram>
</mxfile>
